# xmcd CD database file
# Copyright (C) 1996 Ti Kan
#
# Track frame offsets:
#  150
#  8547
#  23515
#  36317
#  49527
#  72310
#  80782
#  92157
#  98745
#  109210
#  124922
#  136095
#  150265
#  164050
#  179082
#  190095
#  199555
#  210237
#  223872
#  242842
#  267355
#
# Disc length: 3727 seconds
#
# Revision: 1
# Processed by: cddbd v1.4b41PL1 Copyright (c) Steve Scherf et al.
# Submitted via: CDWizzard Release:4.12
#
DISCID=210e8d15
DTITLE=Vaious - Classial - Christmas Wonderland
DYEAR=1900
DGENRE=
TTITLE0=Joy to the World
TTITLE1=Hark the Herald Angels Sing
TTITLE2=Christmas Roses
TTITLE3=Deck the Halls
TTITLE4=Medley, Silent Night, We Three Kins, I saw Three Ships, Silent (r
TTITLE4=eprise)
TTITLE5=Adeste Fidelis
TTITLE6=Jingle Bells
TTITLE7=The Holly and The Ivory
TTITLE8=Away in a  Manger
TTITLE9=Medley, The 12 Days of Christmas, Ding Dong mErrily/ Bring a Torc
TTITLE9=h.., I Heard Bells.., O Sanctissima
TTITLE10=We Wish you a Merry Christmas
TTITLE11=Waht Child Is This
TTITLE12=The Snow lay Deep
TTITLE13=Good King Wenceslas
TTITLE14=O Little Town of Bethlehem
TTITLE15=See Amind the Winter Snow
TTITLE16=God Rest Ye Merry Gentlemen
TTITLE17=Hawaiian Lulaby
TTITLE18=Pastoral (Corelli)
TTITLE19=The Holly City
TTITLE20=Track21
EXTD=
EXTT0=
EXTT1=
EXTT2=
EXTT3=
EXTT4=
EXTT5=
EXTT6=
EXTT7=
EXTT8=
EXTT9=
EXTT10=
EXTT11=
EXTT12=
EXTT13=
EXTT14=
EXTT15=
EXTT16=
EXTT17=
EXTT18=
EXTT19=
EXTT20=
PLAYORDER=
